<svg xmlns="http://www.w3.org/2000/svg" viewBox="0 0 617 363.89"><defs><style>.cls-1{fill:#3a596d;}.cls-2{fill:#3cc194;}</style></defs><title>LapTop logo v2.0</title><g id="Capa_12" data-name="Capa 12"><polygon class="cls-1" points="30.86 204.05 54 204.05 54 146.19 23.14 146.19 23.14 115.33 0 115.33 0 169.33 30.86 169.33 30.86 204.05"/></g><g id="Capa_8" data-name="Capa 8"><g id="Lap_Top" data-name="Lap Top"><path class="cls-1" d="M522.43,511.17V372.76a3.53,3.53,0,0,1,3.52-3.52h23.41a3.52,3.52,0,0,1,3.52,3.52V484.67a3.53,3.53,0,0,0,3.52,3.52h65a3.52,3.52,0,0,1,3.52,3.52v19.46a3.52,3.52,0,0,1-3.52,3.52H526A3.52,3.52,0,0,1,522.43,511.17Z" transform="translate(-207 -369.24)"/><path class="cls-1" d="M694.5,511.73c0-.15-.07-.3-.1-.45a3,3,0,0,0-4.77-1.75,34,34,0,0,1-7.42,4.11,43.52,43.52,0,0,1-16.48,2.9q-15.93,0-23.33-7T635,491.25q0-9.93,3.18-15.83a23.78,23.78,0,0,1,8.81-9.28,42.32,42.32,0,0,1,13.4-5q7.77-1.59,17-2.91t12.37-3.46q3.18-2.16,3.18-7a7.81,7.81,0,0,0-4.21-7q-4.21-2.53-11.34-2.53-8.43,0-12.08,3.74a16.54,16.54,0,0,0-4.14,7.69,3,3,0,0,1-2.91,2.24h-17a3,3,0,0,1-3-3.33,39.62,39.62,0,0,1,2.14-9.78,25.15,25.15,0,0,1,6.93-10.31,32.63,32.63,0,0,1,12.46-6.65,65,65,0,0,1,18.74-2.34,61,61,0,0,1,18.45,2.44,29.66,29.66,0,0,1,12.18,7,26.87,26.87,0,0,1,6.65,11.43,53.68,53.68,0,0,1,2.06,15.46v55.25a3,3,0,0,1-3,3H697.45A3,3,0,0,1,694.5,511.73Zm-1.15-37.36a3,3,0,0,0-4.09-2.85c-.4.15-.81.29-1.24.43a100.92,100.92,0,0,1-10.3,2.44q-10.5,2.06-14.43,5.24t-3.93,9.18q0,10.31,11.8,10.31a23.34,23.34,0,0,0,8.71-1.6,21.61,21.61,0,0,0,6.93-4.31,21.39,21.39,0,0,0,4.69-6.37,17.57,17.57,0,0,0,1.78-7.77Z" transform="translate(-207 -369.24)"/><path class="cls-1" d="M562.08,681.26v-116a3.51,3.51,0,0,0-3.52-3.52h-28a3.53,3.53,0,0,1-3.52-3.52V542.85a3.52,3.52,0,0,1,3.52-3.52h105a3.51,3.51,0,0,1,3.52,3.52v15.37a3.52,3.52,0,0,1-3.52,3.52H596.05a3.52,3.52,0,0,0-3.52,3.52v116a3.53,3.53,0,0,1-3.52,3.52H565.6A3.53,3.53,0,0,1,562.08,681.26Z" transform="translate(-207 -369.24)"/><path class="cls-1" d="M667.92,687.63A54.42,54.42,0,0,1,647.34,684,43.19,43.19,0,0,1,632,673.78,43.64,43.64,0,0,1,622.52,658a60.15,60.15,0,0,1-3.27-20.2,59.29,59.29,0,0,1,3.37-20.39,43.9,43.9,0,0,1,9.71-15.77,43.44,43.44,0,0,1,15.29-10.1,54.63,54.63,0,0,1,20.3-3.55,53.28,53.28,0,0,1,20,3.55,42.26,42.26,0,0,1,24.71,25.68A59.63,59.63,0,0,1,716,637.81a58.69,58.69,0,0,1-3.37,20.48A44.74,44.74,0,0,1,703,674a42.32,42.32,0,0,1-15.2,10.1A53.42,53.42,0,0,1,667.92,687.63Zm0-21q22.88,0,22.88-28.85,0-28.65-22.88-28.66T645,637.81Q645,666.67,667.92,666.66Z" transform="translate(-207 -369.24)"/><path class="cls-1" d="M730.73,730V594.22a3.15,3.15,0,0,1,3.15-3.15h18.25a3.15,3.15,0,0,1,3.15,3.1h0a3.13,3.13,0,0,0,5.27,2.25q8.31-7.89,21.71-7.9A40,40,0,0,1,799,592.05a36.52,36.52,0,0,1,13.22,10.19,49.53,49.53,0,0,1,8.63,16.26A70.23,70.23,0,0,1,824,640.25a71.67,71.67,0,0,1-2.65,20.09,47.5,47.5,0,0,1-7.73,15.77,35.08,35.08,0,0,1-12.45,10.29A37.46,37.46,0,0,1,784.42,690a32.8,32.8,0,0,1-23.31-9,3.14,3.14,0,0,0-5.3,2.29V730a3.15,3.15,0,0,1-3.15,3.15H733.88A3.15,3.15,0,0,1,730.73,730Zm45.46-61.71q21.94,0,21.95-29.78,0-12.93-6.08-21.07t-15.67-8.13q-9.23,0-15.39,7.64t-6.17,20Q754.83,668.27,776.19,668.27Z" transform="translate(-207 -369.24)"/><path class="cls-1" d="M730.73,559V423.22a3.15,3.15,0,0,1,3.15-3.15h18.25a3.15,3.15,0,0,1,3.15,3.1h0a3.13,3.13,0,0,0,5.27,2.25q8.31-7.89,21.71-7.9A40,40,0,0,1,799,421.05a36.52,36.52,0,0,1,13.22,10.19,49.53,49.53,0,0,1,8.63,16.26A70.23,70.23,0,0,1,824,469.25a71.67,71.67,0,0,1-2.65,20.09,47.5,47.5,0,0,1-7.73,15.77,35.08,35.08,0,0,1-12.45,10.29A37.46,37.46,0,0,1,784.42,519a32.8,32.8,0,0,1-23.31-9,3.14,3.14,0,0,0-5.3,2.29V559a3.15,3.15,0,0,1-3.15,3.15H733.88A3.15,3.15,0,0,1,730.73,559Zm45.46-61.71q21.94,0,21.95-29.78,0-12.93-6.08-21.07t-15.67-8.13q-9.23,0-15.39,7.64t-6.17,20Q754.83,497.27,776.19,497.27Z" transform="translate(-207 -369.24)"/></g></g><g id="Capa_23" data-name="Capa 23"><polygon class="cls-2" points="270 22.76 270 107.62 243 107.62 243 84.47 246.86 84.47 246.86 45.9 216 45.9 216 22.76 270 22.76"/></g><g id="Capa_22" data-name="Capa 22"><rect class="cls-2" y="177.05" width="23.14" height="115.71"/></g><g id="Capa_21" data-name="Capa 21"><polygon class="cls-1" points="154.29 177.05 127.29 177.05 127.29 180.9 127.29 207.9 123.43 207.9 123.43 292.76 146.57 292.76 146.57 204.04 154.29 204.05 154.29 177.05"/></g><g id="Capa_20" data-name="Capa 20"><rect class="cls-1" x="92.57" y="22.76" width="115.71" height="23.14"/><rect class="cls-1" x="121.57" y="53.51" width="118.05" height="23.14"/></g><g id="Capa_19" data-name="Capa 19"><rect class="cls-1" x="81" y="115.33" width="73.29" height="23.14"/></g><g id="Capa_18" data-name="Capa 18"><rect class="cls-2" x="30.86" y="115.33" width="23.14" height="23.14"/></g><g id="Capa_17" data-name="Capa 17"><rect class="cls-1" x="246.86" y="146.19" width="23.14" height="115.71"/></g><g id="Capa_16" data-name="Capa 16"><polygon class="cls-1" points="30.86 292.76 30.86 269.62 92.57 269.62 92.57 238.76 115.71 238.76 115.71 292.76 30.86 292.76"/></g><g id="Capa_15" data-name="Capa 15"><polygon class="cls-1" points="30.86 261.9 84.86 261.9 84.86 207.9 54 207.9 54 207.9 30.86 207.9 30.86 261.9"/></g><g id="Capa_14" data-name="Capa 14"><rect class="cls-1" x="185.14" y="177.05" width="54" height="54"/></g><g id="Capa_11" data-name="Capa 11"><rect class="cls-2" x="92.57" y="207.9" width="23.14" height="23.14"/></g><g id="Capa_10" data-name="Capa 10"><polygon class="cls-1" points="154.29 292.76 154.29 207.9 177.43 207.9 177.43 269.62 208.29 269.62 208.29 292.76 154.29 292.76"/></g><g id="Capa_9" data-name="Capa 9"><polygon class="cls-1" points="216 138.47 216 115.33 239.14 115.33 239.14 115.33 270 115.33 270 138.47 216 138.47"/></g><g id="Capa_7" data-name="Capa 7"><polygon class="cls-2" points="185.14 238.76 185.14 261.9 216 261.9 216 292.76 270 292.76 270 269.62 239.14 269.62 239.14 238.76 185.14 238.76"/></g><g id="Capa_6" data-name="Capa 6"><polygon class="cls-2" points="185.14 115.33 185.14 138.47 185.14 138.47 185.14 169.33 239.14 169.33 239.14 146.19 208.29 146.19 208.29 115.33 185.14 115.33"/></g><g id="Capa_5" data-name="Capa 5"><polygon class="cls-1" points="84.86 22.76 61.71 22.76 61.71 53.62 30.86 53.62 30.86 107.62 54 107.62 54 76.76 84.86 76.76 84.86 22.76"/></g><g id="Capa_4" data-name="Capa 4"><polygon class="cls-2" points="0 107.62 23.14 107.62 23.14 45.9 54 45.9 54 22.76 0 22.76 0 107.62"/></g><g id="Capa_3" data-name="Capa 3"><polygon class="cls-1" points="81 146.19 81 180.9 119.57 180.9 119.57 169.33 154.29 169.33 154.29 169.33 154.29 169.33 154.29 146.19 81 146.19"/></g><g id="Capa_2" data-name="Capa 2"><polygon class="cls-2" points="81 84.11 92.57 84.11 92.57 52.76 115.71 52.76 115.71 84.11 127.29 84.11 127.29 107.62 81 107.62 81 84.11"/></g></svg>